<svg width="38" height="60" viewBox="0 0 38 60" fill="none" xmlns="http://www.w3.org/2000/svg">
<path d="M5.98926 32.4141L18.9905 50.6858L31.9917 32.4141L18.9905 40.1494L5.98926 32.4141ZM18.2249 41.4379C18.2296 41.4426 18.2342 41.4426 18.2436 41.4472V47.0445L11.3345 37.3345L18.2249 41.4379ZM26.6512 37.3391L19.7421 47.0492V41.4519C19.7467 41.4472 19.7514 41.4472 19.7608 41.4426L26.6512 37.3391Z" fill="white"/>
<path d="M31.9961 30.645L18.9949 9.04004L5.99365 30.645L18.9949 38.385L31.9961 30.645ZM19.7418 36.1956V26.6349L28.7843 30.813L19.7418 36.1956ZM9.20078 30.813L18.2433 26.6349V36.1956L9.20078 30.813ZM19.7418 24.9823V13.1948L29.5733 29.5246L19.7418 24.9823ZM18.2433 13.1948V24.9823L8.41183 29.5246L18.2433 13.1948Z" fill="white"/>
<path d="M26.4222 14.0614C30.9365 16.9043 33.8402 21.722 34.2463 27.0392L35.7635 29.5555L35.7822 29.0186C36.0576 21.7174 31.9775 14.953 25.3859 11.7832L24.9004 11.5498L26.4222 14.0614Z" fill="white"/>
<path d="M33.7001 36.3207C32.6404 39.9993 30.3622 43.2064 27.2391 45.4192L25.1431 48.3696L25.7733 48.0521C31.1885 45.3119 34.8998 40.088 35.7028 34.0752L35.7961 33.375L33.7001 36.3207Z" fill="white"/>
<path d="M2.21665 29.5504L3.73385 27.0341C4.13999 21.7169 7.04367 16.8993 11.5579 14.0563L13.0751 11.54L12.5896 11.7735C5.99798 14.9432 1.91787 21.7123 2.1933 29.0088L2.21665 29.5504Z" fill="white"/>
<path d="M10.745 45.419C7.62189 43.2062 5.33909 39.9991 4.28405 36.3205L2.18799 33.3701L2.28135 34.0704C3.07963 40.0831 6.79094 45.3116 12.2108 48.0473L12.841 48.3647L10.745 45.419Z" fill="white"/>
<path d="M32.2346 14.6084V9.49658H23.673L22.8187 8.08208C22.6413 7.75997 22.7487 7.34449 23.0661 7.14842C23.2248 7.05038 23.4115 7.0177 23.5983 7.05972C23.7803 7.10173 23.9391 7.21378 24.0371 7.3725C24.2425 7.70395 24.1398 8.1381 23.813 8.3435L24.1678 8.90837C24.8074 8.5069 25.0034 7.66193 24.6066 7.02238C24.4106 6.71427 24.1118 6.49485 23.7523 6.41083C23.3929 6.3268 23.0287 6.38749 22.716 6.58355C22.0764 6.98503 21.8803 7.82999 22.2772 8.46955L23.3182 10.1922L32.0152 24.6126L31.1609 25.817L20.6806 8.42287L23.1454 4.3381C23.3509 4.02999 23.7617 3.93196 24.0838 4.12336C24.2472 4.21672 24.3639 4.37078 24.4106 4.55284C24.4572 4.73491 24.4339 4.92631 24.3359 5.08503C24.2425 5.24842 24.0884 5.36513 23.9064 5.41181C23.7243 5.45849 23.5329 5.43515 23.3742 5.33712L23.0381 5.91132C23.3555 6.09805 23.7243 6.1494 24.0791 6.05604C24.4339 5.96267 24.728 5.73859 24.9147 5.42115C25.1015 5.1037 25.1482 4.7349 25.0595 4.38011C24.9661 4.02532 24.742 3.73122 24.4246 3.54449C23.771 3.16169 22.9307 3.3811 22.5479 4.03466L21.7636 5.33712C21.3482 5.02434 20.8813 4.79093 20.3912 4.63687L21.5769 2.67152C21.7123 2.71353 21.8523 2.73687 21.9924 2.73687C22.1511 2.73687 22.3098 2.70886 22.4686 2.65284C23.1781 2.39142 23.5423 1.60247 23.2762 0.892889C23.0147 0.183306 22.2258 -0.176151 21.5162 0.0852738C21.1708 0.211318 20.9 0.463406 20.7459 0.799524C20.5919 1.13097 20.5779 1.50444 20.7039 1.84989C20.7739 2.03662 20.8813 2.19535 21.0074 2.32606L19.7049 4.48749C19.4762 4.45014 19.2428 4.43147 19.0093 4.43147C18.7759 4.43147 18.5425 4.45481 18.3091 4.48749L17.0066 2.32606C17.1373 2.19068 17.2447 2.03196 17.3101 1.84989C17.4361 1.50444 17.4221 1.13564 17.2681 0.799524C17.114 0.468074 16.8432 0.215986 16.4978 0.0852738C16.1523 -0.0407704 15.7835 -0.0267672 15.4474 0.127287C15.116 0.281341 14.8639 0.552103 14.7332 0.897558C14.6025 1.24301 14.6211 1.61181 14.7752 1.94793C14.9292 2.27938 15.2 2.53146 15.5454 2.66218C15.6995 2.7182 15.8629 2.74621 16.0216 2.74621C16.1617 2.74621 16.297 2.7182 16.4324 2.67152L17.6229 4.64621C17.1327 4.80026 16.6658 5.03368 16.2457 5.34645L15.4941 4.09535L15.4614 4.03933C15.2747 3.72188 14.9806 3.49781 14.6258 3.40444C14.271 3.31107 13.9022 3.36242 13.5848 3.54916C13.2673 3.73589 13.0432 4.02999 12.9499 4.38478C12.8565 4.73957 12.9079 5.10837 13.0946 5.42581C13.4774 6.07938 14.3177 6.29879 14.9712 5.91599L14.6351 5.34179C14.299 5.53786 13.8695 5.42582 13.6735 5.0897C13.5801 4.92631 13.5521 4.73958 13.5988 4.55751C13.6455 4.37545 13.7622 4.22139 13.9255 4.12802C14.0889 4.03466 14.2757 4.00665 14.4577 4.05333C14.6258 4.09535 14.7658 4.19805 14.8592 4.3381L17.3241 8.42287L6.83439 25.8123L5.97542 24.6032L14.6445 10.2248L14.6538 10.2295L15.6902 8.51623L15.7182 8.46955C16.1196 7.82999 15.9189 6.98036 15.2794 6.57888C14.9666 6.38282 14.6024 6.3268 14.243 6.40616C13.8882 6.49019 13.5848 6.70493 13.3887 7.01771C12.9872 7.65726 13.1833 8.5069 13.8275 8.9037L14.1823 8.33884C13.8509 8.13343 13.7528 7.69928 13.9582 7.36783C14.0563 7.20911 14.215 7.09707 14.3971 7.05505C14.5791 7.01304 14.7705 7.04571 14.9292 7.14375C15.2467 7.33982 15.354 7.75063 15.1766 8.07741L14.3224 9.49191H5.75134V14.613C2.04004 18.7445 0 24.2064 0 30.0418C0 35.8398 2.02138 41.2831 5.69066 45.4052V50.475H14.3737L14.9946 51.2826C15.0926 51.4226 15.1346 51.5907 15.1113 51.7634C15.088 51.9501 14.9946 52.1182 14.8452 52.2349C14.5418 52.4777 14.0983 52.4216 13.8555 52.1182C13.7388 51.9688 13.6875 51.7868 13.7108 51.6C13.7342 51.4133 13.8275 51.2452 13.9722 51.1285L13.5614 50.6057C13.272 50.8344 13.0899 51.1565 13.0479 51.5207C13.0059 51.8848 13.1039 52.2442 13.3327 52.529C13.6034 52.8698 14.0049 53.0519 14.4111 53.0519C14.7098 53.0519 15.0086 52.9538 15.256 52.7578C15.5455 52.529 15.7275 52.2069 15.7695 51.8428C15.8115 51.4786 15.7135 51.1192 15.4848 50.8344L14.6585 49.7607L14.6538 49.7654L6.3629 38.0899L7.13783 37.0022L17.3334 51.3526L14.7192 55.0219L14.6912 55.0639C14.5838 55.1993 14.4344 55.288 14.2663 55.3207C14.0796 55.3533 13.8929 55.316 13.7388 55.2086C13.5848 55.1012 13.4821 54.9425 13.4447 54.7558C13.4074 54.5691 13.4494 54.3823 13.5567 54.2283C13.6641 54.0742 13.8228 53.9715 14.0096 53.9342C14.1963 53.9015 14.383 53.9388 14.5371 54.0462L14.9152 53.5C14.6165 53.2899 14.2523 53.2106 13.8882 53.2759C13.5287 53.3413 13.216 53.542 13.0059 53.8455C12.5764 54.4664 12.7305 55.3207 13.3513 55.7548C13.5848 55.9135 13.8509 55.9976 14.131 55.9976C14.215 55.9976 14.2943 55.9882 14.3784 55.9742C14.7378 55.9089 15.0506 55.7081 15.2607 55.4047L16.2084 54.0742C16.5818 54.359 16.9973 54.5831 17.4361 54.7418L15.9936 56.7725C15.6948 56.6698 15.3727 56.6651 15.0739 56.7772C14.7332 56.9032 14.4577 57.1553 14.3037 57.4914C14.1496 57.8229 14.1356 58.1963 14.2617 58.5418C14.3877 58.8872 14.6398 59.158 14.9759 59.3121C15.158 59.3961 15.3541 59.4381 15.5501 59.4381C15.7088 59.4381 15.8722 59.4101 16.0263 59.3541C16.3717 59.228 16.6425 58.9759 16.7966 58.6398C16.9506 58.3084 16.9646 57.9349 16.8386 57.5895C16.7732 57.4167 16.6799 57.2627 16.5585 57.132L18.1223 54.9332C18.4071 54.9892 18.7012 55.0172 18.9953 55.0172C19.2941 55.0172 19.5835 54.9892 19.873 54.9332L21.4695 57.1786C21.1568 57.5428 21.0447 58.0563 21.2221 58.5418C21.4275 59.0926 21.9504 59.4381 22.5106 59.4381C22.6693 59.4381 22.828 59.4101 22.9867 59.3541C23.3275 59.228 23.6029 58.9759 23.757 58.6398C23.9111 58.3084 23.9251 57.9349 23.799 57.5895C23.5376 56.8799 22.7486 56.5204 22.0391 56.7818C22.0297 56.7865 22.0251 56.7912 22.0157 56.7912L20.5639 54.7465C21.0027 54.5877 21.4182 54.3637 21.7963 54.0789L22.7206 55.372L22.744 55.4094C22.9541 55.7081 23.2668 55.9135 23.6263 55.9789C23.7103 55.9929 23.7897 56.0022 23.8737 56.0022C24.1491 56.0022 24.4199 55.9182 24.6533 55.7595C25.2742 55.33 25.4283 54.4757 24.9988 53.8501C24.7887 53.5514 24.4759 53.346 24.1165 53.2806C23.757 53.2153 23.3929 53.2946 23.0894 53.5047L23.4676 54.0509C23.6216 53.9435 23.8084 53.9015 23.9951 53.9388C24.1818 53.9715 24.3405 54.0742 24.4479 54.2329C24.6673 54.5504 24.588 54.9939 24.2705 55.2133C24.1165 55.3207 23.9297 55.3627 23.743 55.3253C23.5703 55.2926 23.4209 55.2039 23.3182 55.0686L20.6713 51.3573L30.8622 37.0069L31.6324 38.0946L23.3182 49.7981L22.5106 50.8484C22.0437 51.4413 22.1464 52.3049 22.7393 52.7718C22.9821 52.9632 23.2808 53.0659 23.5843 53.0659C23.6403 53.0659 23.6916 53.0612 23.7477 53.0565C24.1118 53.0145 24.4386 52.8325 24.6626 52.543C24.8914 52.2536 24.9894 51.8988 24.9474 51.5347C24.9054 51.1705 24.7233 50.8438 24.4339 50.6197L24.0231 51.1425C24.1725 51.2592 24.2658 51.4273 24.2845 51.614C24.3079 51.8008 24.2565 51.9875 24.1398 52.1322C24.0231 52.2816 23.855 52.375 23.6683 52.3936C23.4816 52.417 23.2995 52.3656 23.1501 52.2489C22.856 52.0202 22.7953 51.6 23.0054 51.2966L23.6263 50.489H32.3V45.4285C35.9786 41.3064 38 35.8538 38 30.0511C37.9953 24.2111 35.9506 18.7398 32.2346 14.6084ZM21.3435 1.08429C21.4229 0.911564 21.5629 0.780852 21.7403 0.720164C21.8196 0.692154 21.9037 0.678147 21.983 0.678147C22.0811 0.678147 22.1838 0.701488 22.2772 0.743503C22.4499 0.822864 22.5759 0.962916 22.6413 1.14031C22.7066 1.31771 22.6973 1.50911 22.6226 1.67716C22.5432 1.84989 22.4032 1.9806 22.2258 2.04129C21.8617 2.17667 21.4555 1.98994 21.3201 1.62581C21.2548 1.44375 21.2641 1.25235 21.3435 1.08429ZM16.6798 1.62115C16.6145 1.79854 16.4838 1.93859 16.3157 2.01795C16.143 2.09731 15.9516 2.10198 15.7789 2.03663C15.6015 1.97127 15.4614 1.84056 15.3821 1.6725C15.3027 1.49977 15.298 1.30837 15.3634 1.13564C15.4287 0.958247 15.5595 0.818198 15.7275 0.738837C15.8209 0.696823 15.9189 0.673481 16.0216 0.673481C16.1056 0.673481 16.185 0.687484 16.2644 0.715494C16.4418 0.780851 16.5818 0.911563 16.6612 1.07962C16.7359 1.25235 16.7452 1.44375 16.6798 1.62115ZM16.1944 58.3597C16.115 58.5325 15.9749 58.6585 15.7975 58.7239C15.6201 58.7892 15.4287 58.7799 15.2607 58.7052C15.088 58.6258 14.9573 58.4858 14.8966 58.3084C14.8312 58.131 14.8405 57.9396 14.9152 57.7715C14.9946 57.5988 15.1346 57.4681 15.312 57.4074C15.3914 57.3794 15.4754 57.3654 15.5548 57.3654C15.6575 57.3654 15.7555 57.3887 15.8489 57.4307C16.0216 57.5101 16.1477 57.6501 16.213 57.8275C16.283 58.0003 16.2737 58.1917 16.1944 58.3597ZM21.8663 57.7715C21.9457 57.5988 22.0858 57.4681 22.2631 57.4074C22.3425 57.3794 22.4265 57.3654 22.5059 57.3654C22.6039 57.3654 22.7066 57.3887 22.8 57.4307C22.9727 57.5101 23.0988 57.6501 23.1641 57.8275C23.2295 58.0049 23.2201 58.1963 23.1454 58.3644C23.0661 58.5371 22.926 58.6678 22.7486 58.7285C22.3845 58.8639 21.9784 58.6772 21.843 58.313C21.7823 58.1356 21.787 57.9442 21.8663 57.7715ZM31.5671 10.1641V13.9361C29.9799 12.3489 28.1592 11.0745 26.2079 10.1641H31.5671ZM32.3887 25.2381L35.1477 29.8084L34.2887 31.0175L31.5344 26.4425L32.3887 25.2381ZM20.027 5.23441C20.5265 5.36979 20.9934 5.60321 21.4088 5.92066L20.2884 7.77864L19.3921 6.28945L20.027 5.23441ZM19 5.09903C19.1074 5.09903 19.2147 5.1037 19.3221 5.11304L19 5.64522L18.6779 5.11304C18.7852 5.1037 18.8926 5.09903 19 5.09903ZM16.5911 5.92532C17.0066 5.60321 17.4735 5.37446 17.973 5.23908L18.6079 6.29412L17.7116 7.78331L16.5911 5.92532ZM6.46093 26.4379L3.69729 31.0175L2.83832 29.813L5.60197 25.2334L6.46093 26.4379ZM6.41892 10.1641H11.7735C9.82211 11.0745 8.00147 12.3536 6.41892 13.9408V10.1641ZM6.35356 49.8214V46.0821C7.89877 47.6413 9.67272 48.9064 11.5727 49.8214H6.35356ZM13.8742 49.8214H13.2533C10.6951 48.8644 8.31891 47.2398 6.35356 45.1204V43.3745C6.12481 43.0944 5.90073 42.8096 5.68599 42.5202V44.3968C2.43685 40.4708 0.658233 35.415 0.658233 30.0511C0.658233 24.6452 2.45553 19.5661 5.74668 15.6307V17.4607C5.96142 17.1713 6.18083 16.8865 6.41425 16.6064V14.8745C6.41891 14.8698 6.41891 14.8698 6.42358 14.8651L6.43292 14.8745C8.44496 12.727 10.8865 11.1025 13.5054 10.1688H13.9069L13.0759 11.5506L11.5587 14.0668L3.73464 27.0401L2.21744 29.5563L1.06903 31.4563L0.956997 31.643L13.8742 49.8214ZM5.95675 37.5204L1.75527 31.6057L2.46486 30.4293L6.72703 36.428L5.95675 37.5204ZM17.8423 54.1769C17.3941 54.0415 16.974 53.8221 16.5958 53.5327L17.7396 51.9268L18.5892 53.1219L17.8423 54.1769ZM18.9953 54.3543C18.8459 54.3543 18.7012 54.345 18.5518 54.3263L18.9953 53.7008L19.4388 54.3263C19.2941 54.3403 19.1447 54.3543 18.9953 54.3543ZM21.3995 53.5327C21.0214 53.8221 20.6012 54.0369 20.1531 54.1769L19.4061 53.1266L20.2558 51.9315L21.3995 53.5327ZM19 52.5524L4.12211 31.6103L19 6.93835L33.8685 31.6103L19 52.5524ZM31.2636 36.428L35.5211 30.4339L36.2307 31.6103L32.0386 37.5157L31.2636 36.428ZM31.6278 49.8214H26.4086C28.3086 48.9064 30.0826 47.6366 31.6278 46.0774V49.8214ZM31.6278 43.3745V45.1251C29.6671 47.2445 27.2862 48.8644 24.728 49.8214H24.1071L37.0197 31.6383L35.7592 29.5516L34.242 27.0354L26.4179 14.0622L24.9007 11.546L24.0698 10.1688H24.4712C27.1042 11.1071 29.5457 12.741 31.5624 14.8978V16.6064C31.7911 16.8865 32.0152 17.1713 32.23 17.4607V15.6214C35.5258 19.5568 37.3278 24.6406 37.3278 30.0558C37.3278 35.4243 35.5445 40.4848 32.2907 44.4108V42.5248C32.0806 42.8096 31.8612 43.0944 31.6278 43.3745Z" fill="#2B23EF"/>
</svg>
