<svg width="234" height="48" viewBox="0 0 234 48" fill="none" xmlns="http://www.w3.org/2000/svg">
<path fill-rule="evenodd" clip-rule="evenodd" d="M42.553 33.9669C45.6547 34.6978 47.5775 33.1634 47.5461 31.375C47.5199 29.7837 45.9743 27.9797 42.3696 27.3422C35.9515 26.7616 31.3985 31.1107 31.5347 36.6002C31.9486 43.935 40.0119 47.04 45.6809 47.0452C52.2248 46.9415 58.2553 42.4317 58.9678 36.5742C60.1729 29.4986 59.7642 18.0065 59.8795 11.1744C59.8795 7.78433 54.8445 7.77914 54.8235 11.1122L54.7816 17.6851C54.7816 19.4423 52.3977 19.5201 52.3977 17.7732L52.4291 5.98041C52.4291 2.67325 47.4623 2.65771 47.4413 6.08409C47.4413 9.977 47.4413 12.2008 47.4413 16.0937C47.3837 18.022 44.9055 17.965 44.9683 16.1196C44.9264 11.615 45.005 7.10008 44.9683 2.5955C44.9881 2.26073 44.9383 1.92552 44.8219 1.61056C44.7055 1.29561 44.525 1.00762 44.2917 0.764411C44.0583 0.521202 43.777 0.327948 43.4652 0.196581C43.1533 0.0652131 42.8175 -0.00147149 42.4786 0.000659876C42.1397 0.00279124 41.8048 0.0736882 41.4946 0.208967C41.1845 0.344246 40.9057 0.541035 40.6755 0.787159C40.4453 1.03328 40.2685 1.3235 40.1562 1.63989C40.0439 1.95628 39.9983 2.2921 40.0224 2.6266C40.0224 7.11044 40.0224 11.6876 40.0224 16.1714C39.9648 17.7939 37.7276 17.7732 37.6438 16.1144L37.5757 4.5601C37.6228 1.08707 32.5826 1.21147 32.6507 4.63785L32.8183 20.5516C32.8969 23.2471 32.5459 25.1391 34.322 25.2169C37.8848 23.1745 38.6445 22.8272 42.5163 22.8272C47.3732 22.8272 52.995 27.2281 52.5287 33.1427C51.8633 37.2896 48.5782 40.1665 44.1929 39.8814C41.4947 39.7103 38.4297 38.3263 38.3825 36.3772C38.2358 34.5837 39.8705 33.0442 42.574 33.9721" fill="#FF4650"/>
<path fill-rule="evenodd" clip-rule="evenodd" d="M17.8655 33.9662C14.7638 34.6971 12.841 33.1628 12.8672 31.3744C12.8672 29.7831 14.439 27.9791 18.0489 27.3415C24.4671 26.761 29.02 31.1101 28.8838 36.5995C28.4699 43.9344 20.4066 47.0394 14.7376 47.0445C8.19372 46.9409 2.16325 42.4311 1.44547 36.5736C0.240421 29.4979 0.649088 18.0058 0.539062 11.1738C0.539062 7.78371 5.57405 7.77853 5.58977 11.1116L5.63692 17.6845C5.63692 19.4417 8.02082 19.5194 8.02082 17.7726L7.98938 5.9798C7.98938 2.67264 12.9563 2.6571 12.9772 6.08348C12.9772 9.97639 12.9772 12.2002 12.9772 16.0931C13.0349 18.0214 15.5131 17.9644 15.4502 16.119C15.4921 11.6144 15.4135 7.09946 15.4502 2.59489C15.4304 2.26012 15.4803 1.9249 15.5966 1.60995C15.713 1.295 15.8935 1.00701 16.1268 0.7638C16.3602 0.520592 16.6415 0.327338 16.9533 0.19597C17.2652 0.0646028 17.601 -0.00208184 17.9399 4.95247e-05C18.2788 0.00218089 18.6137 0.0730779 18.9239 0.208357C19.234 0.343635 19.5128 0.540425 19.743 0.786548C19.9732 1.03267 20.15 1.32289 20.2623 1.63928C20.3746 1.95567 20.4202 2.29149 20.3961 2.62599C20.3961 7.10983 20.3961 11.687 20.3961 16.1708C20.4485 17.7933 22.6857 17.7726 22.7748 16.1138L22.8429 4.55949C22.7957 1.08645 27.8359 1.21086 27.7678 4.63724L27.5949 20.551C27.5163 23.2465 27.8674 25.1385 26.0912 25.2163C22.5337 23.1739 21.774 22.8266 17.9022 22.8266C13.0401 22.8266 7.42353 27.2275 7.88983 33.142C8.54999 37.2889 11.8403 40.1659 16.2256 39.8808C18.9238 39.7097 21.9627 38.3257 22.036 36.3766C22.1827 34.5831 20.548 33.0436 17.8446 33.9714" fill="#FF4650"/>
<path d="M71.7801 5.154H78.9081C80.3301 5.154 81.4191 5.559 82.1751 6.369C82.9491 7.161 83.3361 8.376 83.3361 10.014C83.3361 10.77 83.2461 11.4 83.0661 11.904C82.8861 12.39 82.6521 12.786 82.3641 13.092C82.0941 13.38 81.7881 13.596 81.4461 13.74C81.1041 13.884 80.7711 13.965 80.4471 13.983V14.253C80.7711 14.253 81.1311 14.325 81.5271 14.469C81.9411 14.595 82.3191 14.829 82.6611 15.171C83.0211 15.495 83.3181 15.936 83.5521 16.494C83.8041 17.034 83.9301 17.718 83.9301 18.546C83.9301 20.274 83.5341 21.615 82.7421 22.569C81.9501 23.523 80.9151 24 79.6371 24H71.7801V5.154ZM73.9401 22.11H78.9891C79.8531 22.11 80.5011 21.885 80.9331 21.435C81.3831 20.967 81.6081 20.247 81.6081 19.275V18.033C81.6081 17.061 81.3831 16.35 80.9331 15.9C80.5011 15.432 79.8531 15.198 78.9891 15.198H73.9401V22.11ZM73.9401 13.308H78.6381C79.4121 13.308 80.0061 13.11 80.4201 12.714C80.8341 12.3 81.0411 11.661 81.0411 10.797V9.555C81.0411 8.691 80.8341 8.061 80.4201 7.665C80.0061 7.251 79.4121 7.044 78.6381 7.044H73.9401V13.308ZM87.6795 24V5.154H98.1015V7.044H89.8395V13.524H97.5885V15.414H89.8395V22.11H98.1015V24H87.6795ZM101.891 24V5.154H104.051V22.11H111.206V24H101.891ZM114.126 24V5.154H116.286V22.11H123.441V24H114.126ZM137.34 24L135.666 18.357H128.889L127.215 24H125.055L130.941 5.154H133.641L139.554 24H137.34ZM132.993 9.42L132.399 7.071H132.129L131.535 9.42L129.402 16.575H135.18L132.993 9.42ZM147.171 24.324C145.821 24.324 144.642 24.045 143.634 23.487C142.626 22.911 141.789 22.119 141.123 21.111L142.689 19.815C143.265 20.661 143.913 21.318 144.633 21.786C145.353 22.236 146.199 22.461 147.171 22.461C149.727 22.461 151.005 21.264 151.005 18.87C151.005 17.898 150.771 17.16 150.303 16.656C149.835 16.152 149.025 15.756 147.873 15.468L146.469 15.117C144.813 14.703 143.589 14.1 142.797 13.308C142.023 12.498 141.636 11.364 141.636 9.906C141.636 8.232 142.158 6.972 143.202 6.126C144.246 5.262 145.632 4.83 147.36 4.83C148.674 4.83 149.772 5.073 150.654 5.559C151.554 6.045 152.337 6.81 153.003 7.854L151.41 8.988C150.924 8.232 150.366 7.665 149.736 7.287C149.124 6.891 148.305 6.693 147.279 6.693C146.127 6.693 145.245 6.945 144.633 7.449C144.039 7.953 143.742 8.772 143.742 9.906C143.742 10.824 143.985 11.517 144.471 11.985C144.975 12.453 145.776 12.822 146.874 13.092L148.278 13.443C149.16 13.659 149.907 13.92 150.519 14.226C151.131 14.514 151.626 14.874 152.004 15.306C152.4 15.738 152.679 16.251 152.841 16.845C153.021 17.421 153.111 18.096 153.111 18.87C153.111 20.652 152.58 22.011 151.518 22.947C150.474 23.865 149.025 24.324 147.171 24.324ZM172.883 24L171.209 18.357H164.432L162.758 24H160.598L166.484 5.154H169.184L175.097 24H172.883ZM168.536 9.42L167.942 7.071H167.672L167.078 9.42L164.945 16.575H170.723L168.536 9.42ZM180.068 24H177.908V5.154H184.847C187.961 5.154 189.518 6.945 189.518 10.527C189.518 13.551 188.402 15.297 186.17 15.765L189.977 24H187.547L184.01 15.9H180.068V24ZM184.793 14.064C186.395 14.064 187.196 13.2 187.196 11.472V9.636C187.196 7.908 186.395 7.044 184.793 7.044H180.068V14.064H184.793ZM198.874 7.044V24H196.714V7.044H191.395V5.154H204.193V7.044H198.874ZM206.991 24V5.154H217.413V7.044H209.151V13.524H216.9V15.414H209.151V22.11H217.413V24H206.991ZM226.009 24.324C224.659 24.324 223.48 24.045 222.472 23.487C221.464 22.911 220.627 22.119 219.961 21.111L221.527 19.815C222.103 20.661 222.751 21.318 223.471 21.786C224.191 22.236 225.037 22.461 226.009 22.461C228.565 22.461 229.843 21.264 229.843 18.87C229.843 17.898 229.609 17.16 229.141 16.656C228.673 16.152 227.863 15.756 226.711 15.468L225.307 15.117C223.651 14.703 222.427 14.1 221.635 13.308C220.861 12.498 220.474 11.364 220.474 9.906C220.474 8.232 220.996 6.972 222.04 6.126C223.084 5.262 224.47 4.83 226.198 4.83C227.512 4.83 228.61 5.073 229.492 5.559C230.392 6.045 231.175 6.81 231.841 7.854L230.248 8.988C229.762 8.232 229.204 7.665 228.574 7.287C227.962 6.891 227.143 6.693 226.117 6.693C224.965 6.693 224.083 6.945 223.471 7.449C222.877 7.953 222.58 8.772 222.58 9.906C222.58 10.824 222.823 11.517 223.309 11.985C223.813 12.453 224.614 12.822 225.712 13.092L227.116 13.443C227.998 13.659 228.745 13.92 229.357 14.226C229.969 14.514 230.464 14.874 230.842 15.306C231.238 15.738 231.517 16.251 231.679 16.845C231.859 17.421 231.949 18.096 231.949 18.87C231.949 20.652 231.418 22.011 230.356 22.947C229.312 23.865 227.863 24.324 226.009 24.324ZM69.9891 35V34.235H70.7541V29.483H69.9891V28.718H72.4731V29.483H71.7081V34.235H72.4731V35H69.9891ZM75.0646 31.229L74.5876 30.059H74.4706L74.5426 31.247V35H73.6246V28.718H74.7226L76.5946 32.489L77.0806 33.659H77.1976L77.1256 32.471V28.718H78.0436V35H76.9366L75.0646 31.229ZM81.1264 35.108C80.6584 35.108 80.2504 35.021 79.9024 34.847C79.5604 34.667 79.2664 34.409 79.0204 34.073L79.6774 33.47C79.8634 33.728 80.0764 33.926 80.3164 34.064C80.5564 34.202 80.8294 34.271 81.1354 34.271C81.8794 34.271 82.2514 33.929 82.2514 33.245C82.2514 32.969 82.1854 32.759 82.0534 32.615C81.9214 32.465 81.6934 32.351 81.3694 32.273L80.8564 32.165C80.2924 32.039 79.8754 31.838 79.6054 31.562C79.3414 31.28 79.2094 30.887 79.2094 30.383C79.2094 29.801 79.3834 29.36 79.7314 29.06C80.0854 28.76 80.5774 28.61 81.2074 28.61C81.6574 28.61 82.0354 28.688 82.3414 28.844C82.6534 28.994 82.9234 29.231 83.1514 29.555L82.4944 30.131C82.3324 29.903 82.1494 29.732 81.9454 29.618C81.7474 29.504 81.4954 29.447 81.1894 29.447C80.8474 29.447 80.5894 29.519 80.4154 29.663C80.2474 29.801 80.1634 30.032 80.1634 30.356C80.1634 30.62 80.2294 30.821 80.3614 30.959C80.4994 31.091 80.7214 31.193 81.0274 31.265L81.5404 31.382C81.8404 31.448 82.0954 31.532 82.3054 31.634C82.5154 31.73 82.6864 31.85 82.8184 31.994C82.9564 32.138 83.0554 32.309 83.1154 32.507C83.1754 32.699 83.2054 32.924 83.2054 33.182C83.2054 33.812 83.0224 34.292 82.6564 34.622C82.2964 34.946 81.7864 35.108 81.1264 35.108ZM86.2957 29.555V35H85.3417V29.555H83.6767V28.718H87.9607V29.555H86.2957ZM88.5867 35V34.235H89.3517V29.483H88.5867V28.718H91.0707V29.483H90.3057V34.235H91.0707V35H88.5867ZM94.3289 29.555V35H93.3749V29.555H91.7099V28.718H95.9939V29.555H94.3289ZM97.7893 28.718V32.786C97.7893 33.29 97.8763 33.662 98.0503 33.902C98.2243 34.142 98.5333 34.262 98.9773 34.262C99.4213 34.262 99.7303 34.142 99.9043 33.902C100.078 33.662 100.165 33.29 100.165 32.786V28.718H101.119V32.633C101.119 33.059 101.08 33.428 101.002 33.74C100.93 34.052 100.81 34.31 100.642 34.514C100.474 34.718 100.252 34.868 99.9763 34.964C99.7063 35.06 99.3733 35.108 98.9773 35.108C98.5813 35.108 98.2453 35.06 97.9693 34.964C97.6993 34.868 97.4803 34.718 97.3123 34.514C97.1443 34.31 97.0213 34.052 96.9433 33.74C96.8713 33.428 96.8353 33.059 96.8353 32.633V28.718H97.7893ZM104.586 35.108C104.22 35.108 103.89 35.048 103.596 34.928C103.308 34.802 103.059 34.607 102.849 34.343C102.645 34.079 102.486 33.743 102.372 33.335C102.264 32.921 102.21 32.429 102.21 31.859C102.21 31.289 102.264 30.8 102.372 30.392C102.486 29.978 102.645 29.639 102.849 29.375C103.059 29.111 103.308 28.919 103.596 28.799C103.89 28.673 104.22 28.61 104.586 28.61C105.12 28.61 105.546 28.727 105.864 28.961C106.188 29.189 106.446 29.534 106.638 29.996L105.828 30.446C105.72 30.092 105.567 29.837 105.369 29.681C105.177 29.525 104.916 29.447 104.586 29.447C104.16 29.447 103.827 29.594 103.587 29.888C103.353 30.182 103.236 30.587 103.236 31.103V32.615C103.236 33.131 103.353 33.536 103.587 33.83C103.827 34.124 104.16 34.271 104.586 34.271C104.922 34.271 105.192 34.187 105.396 34.019C105.606 33.851 105.768 33.581 105.882 33.209L106.674 33.677C106.476 34.139 106.212 34.493 105.882 34.739C105.552 34.985 105.12 35.108 104.586 35.108ZM107.378 35V34.235H108.143V29.483H107.378V28.718H109.862V29.483H109.097V34.235H109.862V35H107.378ZM113.2 35.108C112.822 35.108 112.483 35.048 112.183 34.928C111.883 34.802 111.625 34.607 111.409 34.343C111.199 34.079 111.037 33.743 110.923 33.335C110.815 32.921 110.761 32.429 110.761 31.859C110.761 31.289 110.815 30.8 110.923 30.392C111.037 29.978 111.199 29.639 111.409 29.375C111.625 29.111 111.883 28.919 112.183 28.799C112.483 28.673 112.822 28.61 113.2 28.61C113.578 28.61 113.917 28.673 114.217 28.799C114.517 28.919 114.772 29.111 114.982 29.375C115.198 29.639 115.36 29.978 115.468 30.392C115.582 30.8 115.639 31.289 115.639 31.859C115.639 32.429 115.582 32.921 115.468 33.335C115.36 33.743 115.198 34.079 114.982 34.343C114.772 34.607 114.517 34.802 114.217 34.928C113.917 35.048 113.578 35.108 113.2 35.108ZM113.2 34.262C113.65 34.262 113.998 34.118 114.244 33.83C114.49 33.536 114.613 33.131 114.613 32.615V31.103C114.613 30.587 114.49 30.185 114.244 29.897C113.998 29.603 113.65 29.456 113.2 29.456C112.75 29.456 112.402 29.603 112.156 29.897C111.91 30.185 111.787 30.587 111.787 31.103V32.615C111.787 33.131 111.91 33.536 112.156 33.83C112.402 34.118 112.75 34.262 113.2 34.262ZM113.29 28.259L112.723 27.98L113.479 26.342L114.289 26.756L113.29 28.259ZM118.21 31.229L117.733 30.059H117.616L117.688 31.247V35H116.77V28.718H117.868L119.74 32.489L120.226 33.659H120.343L120.271 32.471V28.718H121.189V35H120.082L118.21 31.229ZM125.378 28.718V32.786C125.378 33.29 125.465 33.662 125.639 33.902C125.813 34.142 126.122 34.262 126.566 34.262C127.01 34.262 127.319 34.142 127.493 33.902C127.667 33.662 127.754 33.29 127.754 32.786V28.718H128.708V32.633C128.708 33.059 128.669 33.428 128.591 33.74C128.519 34.052 128.399 34.31 128.231 34.514C128.063 34.718 127.841 34.868 127.565 34.964C127.295 35.06 126.962 35.108 126.566 35.108C126.17 35.108 125.834 35.06 125.558 34.964C125.288 34.868 125.069 34.718 124.901 34.514C124.733 34.31 124.61 34.052 124.532 33.74C124.46 33.428 124.424 33.059 124.424 32.633V28.718H125.378ZM131.49 31.229L131.013 30.059H130.896L130.968 31.247V35H130.05V28.718H131.148L133.02 32.489L133.506 33.659H133.623L133.551 32.471V28.718H134.469V35H133.362L131.49 31.229ZM135.608 35V34.235H136.373V29.483H135.608V28.718H138.092V29.483H137.327V34.235H138.092V35H135.608ZM140.54 35L138.695 28.718H139.694L140.81 32.669L141.071 34.136H141.188L141.449 32.669L142.556 28.718H143.537L141.701 35H140.54ZM144.377 35V28.718H148.022V29.555H145.331V31.391H147.761V32.219H145.331V34.163H148.022V35H144.377ZM150.156 35H149.202V28.718H151.686C152.226 28.718 152.631 28.88 152.901 29.204C153.177 29.522 153.315 29.981 153.315 30.581C153.315 31.067 153.225 31.46 153.045 31.76C152.865 32.06 152.595 32.261 152.235 32.363L153.432 35H152.37L151.281 32.435H150.156V35ZM151.605 31.634C151.833 31.634 152.004 31.577 152.118 31.463C152.238 31.343 152.298 31.151 152.298 30.887V30.302C152.298 30.038 152.238 29.849 152.118 29.735C152.004 29.615 151.833 29.555 151.605 29.555H150.156V31.634H151.605ZM156.229 35.108C155.761 35.108 155.353 35.021 155.005 34.847C154.663 34.667 154.369 34.409 154.123 34.073L154.78 33.47C154.966 33.728 155.179 33.926 155.419 34.064C155.659 34.202 155.932 34.271 156.238 34.271C156.982 34.271 157.354 33.929 157.354 33.245C157.354 32.969 157.288 32.759 157.156 32.615C157.024 32.465 156.796 32.351 156.472 32.273L155.959 32.165C155.395 32.039 154.978 31.838 154.708 31.562C154.444 31.28 154.312 30.887 154.312 30.383C154.312 29.801 154.486 29.36 154.834 29.06C155.188 28.76 155.68 28.61 156.31 28.61C156.76 28.61 157.138 28.688 157.444 28.844C157.756 28.994 158.026 29.231 158.254 29.555L157.597 30.131C157.435 29.903 157.252 29.732 157.048 29.618C156.85 29.504 156.598 29.447 156.292 29.447C155.95 29.447 155.692 29.519 155.518 29.663C155.35 29.801 155.266 30.032 155.266 30.356C155.266 30.62 155.332 30.821 155.464 30.959C155.602 31.091 155.824 31.193 156.13 31.265L156.643 31.382C156.943 31.448 157.198 31.532 157.408 31.634C157.618 31.73 157.789 31.85 157.921 31.994C158.059 32.138 158.158 32.309 158.218 32.507C158.278 32.699 158.308 32.924 158.308 33.182C158.308 33.812 158.125 34.292 157.759 34.622C157.399 34.946 156.889 35.108 156.229 35.108ZM159.128 35V34.235H159.893V29.483H159.128V28.718H161.612V29.483H160.847V34.235H161.612V35H159.128ZM164.87 29.555V35H163.916V29.555H162.251V28.718H166.535V29.555H164.87ZM170.431 35L169.945 33.263H167.83L167.344 35H166.408L168.289 28.718H169.504L171.394 35H170.431ZM169.135 30.5L168.937 29.582H168.82L168.622 30.5L168.064 32.48H169.72L169.135 30.5ZM173.227 35H172.273V28.718H174.757C175.297 28.718 175.702 28.88 175.972 29.204C176.248 29.522 176.386 29.981 176.386 30.581C176.386 31.067 176.296 31.46 176.116 31.76C175.936 32.06 175.666 32.261 175.306 32.363L176.503 35H175.441L174.352 32.435H173.227V35ZM174.676 31.634C174.904 31.634 175.075 31.577 175.189 31.463C175.309 31.343 175.369 31.151 175.369 30.887V30.302C175.369 30.038 175.309 29.849 175.189 29.735C175.075 29.615 174.904 29.555 174.676 29.555H173.227V31.634H174.676ZM177.356 35V34.235H178.121V29.483H177.356V28.718H179.84V29.483H179.075V34.235H179.84V35H177.356ZM184.511 35L184.025 33.263H181.91L181.424 35H180.488L182.369 28.718H183.584L185.474 35H184.511ZM183.215 30.5L183.017 29.582H182.9L182.702 30.5L182.144 32.48H183.8L183.215 30.5ZM70.2321 39.718H72.3021C72.6741 39.718 73.0041 39.778 73.2921 39.898C73.5861 40.018 73.8321 40.207 74.0301 40.465C74.2341 40.717 74.3871 41.041 74.4891 41.437C74.5971 41.833 74.6511 42.307 74.6511 42.859C74.6511 43.411 74.5971 43.885 74.4891 44.281C74.3871 44.677 74.2341 45.004 74.0301 45.262C73.8321 45.514 73.5861 45.7 73.2921 45.82C73.0041 45.94 72.6741 46 72.3021 46H70.2321V39.718ZM72.3021 45.163C72.7161 45.163 73.0401 45.031 73.2741 44.767C73.5081 44.497 73.6251 44.104 73.6251 43.588V42.13C73.6251 41.614 73.5081 41.224 73.2741 40.96C73.0401 40.69 72.7161 40.555 72.3021 40.555H71.1861V45.163H72.3021ZM75.7868 46V39.718H79.4318V40.555H76.7408V42.391H79.1708V43.219H76.7408V45.163H79.4318V46H75.7868ZM80.6119 46V39.718H81.5659V45.163H83.8519V46H80.6119ZM87.9988 46L86.1538 39.718H87.1528L88.2688 43.669L88.5298 45.136H88.6468L88.9078 43.669L90.0148 39.718H90.9958L89.1598 46H87.9988ZM94.9063 46L94.4203 44.263H92.3053L91.8193 46H90.8833L92.7643 39.718H93.9793L95.8693 46H94.9063ZM93.6103 41.5L93.4123 40.582H93.2953L93.0973 41.5L92.5393 43.48H94.1953L93.6103 41.5ZM96.7487 46V39.718H97.7027V45.163H99.9887V46H96.7487ZM100.932 46V39.718H101.886V45.163H104.172V46H100.932ZM105.116 46V39.718H108.761V40.555H106.07V42.391H108.5V43.219H106.07V45.163H108.761V46H105.116Z" fill="white"/>
</svg>
